<svg xmlns="http://www.w3.org/2000/svg" viewBox="0 0 900 900" role="img" aria-labelledby="title desc">
  <title id="title">Ruma 52 coffee bar detail</title>
  <desc id="desc">A stylized espresso bar with shelves, cups, and a coffee machine.</desc>
  <rect width="900" height="900" fill="#34251d"/>
  <rect x="0" y="626" width="900" height="274" fill="#241914"/>
  <rect x="116" y="150" width="668" height="18" rx="9" fill="#d2ab80"/>
  <rect x="116" y="238" width="668" height="18" rx="9" fill="#d2ab80"/>
  <g fill="#f4ebdf">
    <rect x="150" y="110" width="54" height="40" rx="8"/>
    <rect x="246" y="100" width="60" height="50" rx="8"/>
    <rect x="344" y="110" width="46" height="40" rx="8"/>
    <rect x="452" y="102" width="78" height="48" rx="8"/>
    <rect x="572" y="110" width="48" height="40" rx="8"/>
    <rect x="668" y="102" width="58" height="48" rx="8"/>
  </g>
  <g fill="#b6895f">
    <rect x="148" y="188" width="40" height="50" rx="10"/>
    <rect x="232" y="178" width="48" height="60" rx="12"/>
    <rect x="330" y="184" width="34" height="54" rx="9"/>
    <rect x="420" y="170" width="64" height="68" rx="14"/>
    <rect x="522" y="188" width="44" height="50" rx="10"/>
    <rect x="628" y="174" width="56" height="64" rx="14"/>
  </g>
  <rect x="220" y="356" width="460" height="170" rx="26" fill="#d9b38a"/>
  <rect x="252" y="392" width="172" height="100" rx="18" fill="#6c4b36"/>
  <circle cx="612" cy="438" r="56" fill="#6c4b36"/>
  <rect x="558" y="512" width="108" height="18" rx="9" fill="#6c4b36"/>
  <rect x="150" y="540" width="600" height="34" rx="17" fill="#8b6649"/>
  <rect x="92" y="574" width="716" height="62" fill="#6b4d38"/>
  <rect x="124" y="636" width="652" height="188" fill="#2e211a"/>
  <g fill="#f4ebdf">
    <ellipse cx="300" cy="678" rx="54" ry="18"/>
    <path d="M254 678h92c0 38-14 58-46 58s-46-20-46-58Z"/>
    <ellipse cx="460" cy="694" rx="40" ry="14"/>
    <path d="M426 694h68c0 30-10 46-34 46s-34-16-34-46Z"/>
    <ellipse cx="598" cy="688" rx="66" ry="20"/>
    <path d="M542 688h112c0 42-18 64-56 64s-56-22-56-64Z"/>
  </g>
  <text x="70" y="848" font-family="Georgia, serif" font-size="44" letter-spacing="6" fill="#efe5d8">COFFEE BAR</text>
</svg>
