<svg xmlns="http://www.w3.org/2000/svg" viewBox="0 0 900 900" role="img" aria-labelledby="title desc">
  <title id="title">Ruma 52 lantern detail</title>
  <desc id="desc">A warm paper lantern with soft shadows and an olive branch.</desc>
  <defs>
    <radialGradient id="lamp" cx="50%" cy="42%" r="40%">
      <stop offset="0%" stop-color="#fff7ea"/>
      <stop offset="100%" stop-color="#e9d6bb"/>
    </radialGradient>
  </defs>
  <rect width="900" height="900" fill="#2c1f18"/>
  <circle cx="460" cy="280" r="172" fill="url(#lamp)"/>
  <ellipse cx="460" cy="328" rx="230" ry="46" fill="#c29b72" opacity="0.18"/>
  <rect x="452" y="40" width="16" height="92" rx="8" fill="#d7b08f"/>
  <g fill="none" stroke="#d8c5a8" stroke-width="8" opacity="0.7">
    <ellipse cx="460" cy="280" rx="138" ry="172"/>
    <ellipse cx="460" cy="280" rx="86" ry="172"/>
    <path d="M288 280h344"/>
    <path d="M316 222h288"/>
    <path d="M316 338h288"/>
  </g>
  <g stroke="#617053" stroke-width="18" stroke-linecap="round" fill="none">
    <path d="M188 658c64-74 136-130 218-168"/>
    <path d="M218 714c52-58 120-102 204-134"/>
    <path d="M238 782c38-34 78-60 122-78"/>
  </g>
  <g fill="#748462">
    <ellipse cx="410" cy="516" rx="34" ry="14" transform="rotate(-22 410 516)"/>
    <ellipse cx="348" cy="552" rx="32" ry="13" transform="rotate(-12 348 552)"/>
    <ellipse cx="300" cy="604" rx="28" ry="12" transform="rotate(14 300 604)"/>
    <ellipse cx="468" cy="546" rx="32" ry="13" transform="rotate(18 468 546)"/>
    <ellipse cx="366" cy="666" rx="30" ry="12" transform="rotate(-22 366 666)"/>
  </g>
  <text x="70" y="836" font-family="Georgia, serif" font-size="44" letter-spacing="6" fill="#efe5d8">LANTERN LIGHT</text>
</svg>
