<svg xmlns="http://www.w3.org/2000/svg" viewBox="0 0 1600 1200" role="img" aria-labelledby="title desc">
  <title id="title">Ruma 52 cafe scene</title>
  <desc id="desc">An illustrated warm cafe interior with lanterns, tables, and window light.</desc>
  <defs>
    <linearGradient id="wall" x1="0%" y1="0%" x2="0%" y2="100%">
      <stop offset="0%" stop-color="#6d4d36"/>
      <stop offset="100%" stop-color="#2b1e17"/>
    </linearGradient>
    <linearGradient id="floor" x1="0%" y1="0%" x2="0%" y2="100%">
      <stop offset="0%" stop-color="#7b5b42"/>
      <stop offset="100%" stop-color="#241813"/>
    </linearGradient>
    <radialGradient id="glow" cx="50%" cy="35%" r="55%">
      <stop offset="0%" stop-color="#f5e8d2" stop-opacity="0.7"/>
      <stop offset="100%" stop-color="#f5e8d2" stop-opacity="0"/>
    </radialGradient>
  </defs>
  <rect width="1600" height="760" fill="url(#wall)"/>
  <rect y="760" width="1600" height="440" fill="url(#floor)"/>
  <rect x="1090" y="120" width="330" height="470" rx="12" fill="#d9c1a2"/>
  <rect x="1118" y="146" width="274" height="418" fill="#f3e8d7"/>
  <g fill="#c79f73" opacity="0.95">
    <rect x="1138" y="146" width="18" height="418"/>
    <rect x="1172" y="146" width="18" height="418"/>
    <rect x="1206" y="146" width="18" height="418"/>
    <rect x="1240" y="146" width="18" height="418"/>
    <rect x="1274" y="146" width="18" height="418"/>
    <rect x="1308" y="146" width="18" height="418"/>
    <rect x="1342" y="146" width="18" height="418"/>
    <rect x="1376" y="146" width="16" height="418"/>
  </g>
  <ellipse cx="420" cy="180" rx="86" ry="76" fill="#efe2cb"/>
  <ellipse cx="420" cy="196" rx="110" ry="22" fill="#b89670" opacity="0.35"/>
  <ellipse cx="670" cy="220" rx="58" ry="52" fill="#f2e7d6"/>
  <ellipse cx="670" cy="232" rx="78" ry="16" fill="#b89670" opacity="0.25"/>
  <ellipse cx="790" cy="160" rx="44" ry="38" fill="#f2e7d6"/>
  <ellipse cx="790" cy="168" rx="58" ry="12" fill="#b89670" opacity="0.2"/>
  <circle cx="800" cy="390" r="270" fill="url(#glow)"/>
  <g fill="#1f1612">
    <rect x="560" y="600" width="310" height="26" rx="13"/>
    <rect x="700" y="620" width="26" height="180" rx="12"/>
  </g>
  <ellipse cx="713" cy="584" rx="160" ry="54" fill="#543b2c"/>
  <ellipse cx="713" cy="572" rx="160" ry="54" fill="#7f614a"/>
  <g>
    <ellipse cx="655" cy="534" rx="60" ry="22" fill="#e8d9c6"/>
    <path d="M606 534h98c0 43-14 66-49 66s-49-23-49-66Z" fill="#f6f1ea"/>
    <path d="M630 517c0-14 11-25 25-25M662 517c0-18 15-32 32-32" fill="none" stroke="#f6f1ea" stroke-linecap="round" stroke-width="7"/>
  </g>
  <g>
    <ellipse cx="792" cy="528" rx="48" ry="18" fill="#d8b183"/>
    <path d="M751 528h82c0 34-12 52-41 52s-41-18-41-52Z" fill="#9f7455"/>
    <rect x="826" y="522" width="24" height="14" rx="7" fill="none" stroke="#d8b183" stroke-width="6"/>
  </g>
  <g transform="translate(180 648)">
    <rect x="0" y="0" width="22" height="150" rx="11" fill="#291c16"/>
    <rect x="112" y="0" width="22" height="150" rx="11" fill="#291c16"/>
    <rect x="-16" y="-18" width="164" height="20" rx="10" fill="#291c16"/>
    <rect x="-30" y="-72" width="192" height="18" rx="9" fill="#291c16"/>
  </g>
  <g transform="translate(975 700)">
    <rect x="0" y="0" width="22" height="150" rx="11" fill="#291c16"/>
    <rect x="112" y="0" width="22" height="150" rx="11" fill="#291c16"/>
    <rect x="-16" y="-18" width="164" height="20" rx="10" fill="#291c16"/>
    <rect x="-40" y="-72" width="212" height="18" rx="9" fill="#291c16"/>
  </g>
  <g opacity="0.95">
    <path d="M1240 760c0-74 60-134 134-134 30 0 58 10 82 28-5 110-54 184-148 222-45-28-68-66-68-116Z" fill="#48533f"/>
    <path d="M1330 692c34-48 72-84 112-106" fill="none" stroke="#55624a" stroke-width="20" stroke-linecap="round"/>
    <path d="M1270 718c-42-54-82-92-124-114" fill="none" stroke="#55624a" stroke-width="18" stroke-linecap="round"/>
  </g>
  <text x="122" y="1086" font-family="Georgia, serif" font-size="64" letter-spacing="10" fill="#f6efe6">RUMA 52</text>
  <text x="124" y="1132" font-family="Arial, sans-serif" font-size="20" letter-spacing="8" fill="#d8b183">OLD HOUSE. SLOW COFFEE. WARM LIGHT.</text>
</svg>
