<svg xmlns="http://www.w3.org/2000/svg" viewBox="0 0 1200 1600" role="img" aria-labelledby="title desc">
  <title id="title">Ruma 52 menu sheet</title>
  <desc id="desc">A printable one-page cafe menu featuring signature drinks, coffee, tea, and pastry.</desc>
  <rect width="1200" height="1600" fill="#f7f1e8"/>
  <rect x="60" y="60" width="1080" height="1480" rx="24" fill="#fffaf4" stroke="#dcc3a3" stroke-width="4"/>
  <text x="600" y="178" text-anchor="middle" font-family="Georgia, serif" font-size="78" letter-spacing="10" fill="#2f2018">RUMA 52</text>
  <text x="600" y="220" text-anchor="middle" font-family="Arial, sans-serif" font-size="22" letter-spacing="8" fill="#9f7756">HOME CAFE MENU</text>
  <line x1="180" y1="272" x2="1020" y2="272" stroke="#dcc3a3" stroke-width="2"/>
  <g font-family="Arial, sans-serif" fill="#694c39">
    <text x="168" y="340" font-size="20" letter-spacing="5">SIGNATURE</text>
    <text x="168" y="388" font-size="30">Kopi Susu Ruma</text>
    <text x="954" y="388" font-size="30" text-anchor="end">32</text>
    <text x="168" y="426" font-size="22">Sea Salt Foam</text>
    <text x="954" y="426" font-size="22" text-anchor="end">38</text>
    <text x="168" y="464" font-size="22">52 Degree Chocolate</text>
    <text x="954" y="464" font-size="22" text-anchor="end">46</text>
    <text x="168" y="502" font-size="22">Burnt Mocha</text>
    <text x="954" y="502" font-size="22" text-anchor="end">55</text>
    <text x="168" y="598" font-size="20" letter-spacing="5">COFFEE</text>
    <text x="168" y="646" font-size="22">Black</text>
    <text x="954" y="646" font-size="22" text-anchor="end">27</text>
    <text x="168" y="684" font-size="22">White</text>
    <text x="954" y="684" font-size="22" text-anchor="end">32</text>
    <text x="168" y="722" font-size="22">Manual Brew</text>
    <text x="954" y="722" font-size="22" text-anchor="end">32</text>
    <text x="168" y="760" font-size="22">Passion Tonic</text>
    <text x="954" y="760" font-size="22" text-anchor="end">36</text>
    <text x="168" y="798" font-size="22">Mont Blanc</text>
    <text x="954" y="798" font-size="22" text-anchor="end">42</text>
    <text x="168" y="894" font-size="20" letter-spacing="5">MATCHA AND TEA</text>
    <text x="168" y="942" font-size="22">Kyoto Fog Matcha</text>
    <text x="954" y="942" font-size="22" text-anchor="end">36</text>
    <text x="168" y="980" font-size="22">Premium Matcha Latte</text>
    <text x="954" y="980" font-size="22" text-anchor="end">38</text>
    <text x="168" y="1018" font-size="22">Ceremonial Matcha</text>
    <text x="954" y="1018" font-size="22" text-anchor="end">60</text>
    <text x="168" y="1056" font-size="22">Iced Tea</text>
    <text x="954" y="1056" font-size="22" text-anchor="end">18</text>
    <text x="168" y="1094" font-size="22">Classic Hot Tea</text>
    <text x="954" y="1094" font-size="22" text-anchor="end">30</text>
    <text x="168" y="1132" font-size="22">Iced Lychee Tea</text>
    <text x="954" y="1132" font-size="22" text-anchor="end">25</text>
    <text x="168" y="1170" font-size="22">Passionfruit Iced Tea</text>
    <text x="954" y="1170" font-size="22" text-anchor="end">25</text>
    <text x="168" y="1266" font-size="20" letter-spacing="5">PASTRY</text>
    <text x="168" y="1314" font-size="22">Butter Croissant</text>
    <text x="954" y="1314" font-size="22" text-anchor="end">26</text>
    <text x="168" y="1352" font-size="22">Almond Croissant</text>
    <text x="954" y="1352" font-size="22" text-anchor="end">34</text>
    <text x="168" y="1390" font-size="22">Pain au Chocolat</text>
    <text x="954" y="1390" font-size="22" text-anchor="end">32</text>
    <text x="168" y="1428" font-size="22">Pain Suisse</text>
    <text x="954" y="1428" font-size="22" text-anchor="end">35</text>
    <text x="168" y="1466" font-size="22">Kouign Amann</text>
    <text x="954" y="1466" font-size="22" text-anchor="end">37</text>
  </g>
  <text x="600" y="1530" text-anchor="middle" font-family="Arial, sans-serif" font-size="18" letter-spacing="5" fill="#9f7756">LIPPO KARAWACI · @RUMA____52</text>
</svg>
